# xmcd CD database file
#
# Track frame offsets:
#	150
#	15538
#	28840
#	48477
#	61858
#	75537
#	87313
#	101820
#	115896
#	129742
#	144738
#	163387
#	183248
#	203994
#	214642
#	231209
#	245901
#	260098
#	273701
#	291526
#
# Disc length: 4154 seconds
#
# Revision: 2
# Processed by: cddbd v1.5.2PL0 Copyright (c) Steve Scherf et al.
# Submitted via: CDex 1.70beta2
#
DISCID=3c103814
DTITLE=Various Artist - Legends Of Line Dancing - CD1
DYEAR=2006
DGENRE=Country
TTITLE0=Blue Ridge Mountain Band/Achy Breaky Heart
TTITLE1=George Moody and The Country Squires/Hot, Country And Single
TTITLE2=Blue Ridge Mountain Band/Dance The Night Away
TTITLE3=Blue Ridge Mountain Band/Rose Garden
TTITLE4=The Dockery Boys/Mississippi River, Louisiana Woman
TTITLE5=Blue Ridge Mountain Band/Jolene
TTITLE6=Blue Ridge Mountain Band/Running Bear
TTITLE7=Buddy and The Ghost Riders/Louise (Like Sweet White Wine)
TTITLE8=Blue Ridge Mountain Band/Top Of The World
TTITLE9=Blue Ridge Mountain Band/Country Roads
TTITLE10=Blue Ridge Mountain Band/One Piece At A Time
TTITLE11=George Moody and The Country Squires/Okie From Muskoogee
TTITLE12=Blue Ridge Mountain Band/I Don't Want A Lover
TTITLE13=The Nashville Set/Hello Mary Lou
TTITLE14=Blue Ridge Mountain Band/These Boots Are Made For Walking
TTITLE15=Americana/Queen Of The Line
TTITLE16=Blue Ridge Mountain Band/Brown-Eyed Girl
TTITLE17=The Nashville Set/Watermelon Crawl
TTITLE18=The Deadweights (With Memphis Roots)/All You Ever Do Is Bring Me Down
TTITLE19=The Nashville Set/Mmm...Bop
EXTD=YEAR: 2006
EXTT0=
EXTT1=
EXTT2=
EXTT3=
EXTT4=
EXTT5=
EXTT6=
EXTT7=
EXTT8=
EXTT9=
EXTT10=
EXTT11=
EXTT12=
EXTT13=
EXTT14=
EXTT15=
EXTT16=
EXTT17=
EXTT18=
EXTT19=
PLAYORDER=
